<svg width="1575" height="398" viewBox="0 0 1575 398" fill="none" xmlns="http://www.w3.org/2000/svg">
<path fill-rule="evenodd" clip-rule="evenodd" d="M170.021 3.14006C162.265 6.74948 155.317 15.1635 154.099 22.4234C152.878 29.694 152.14 31.7888 150.801 31.7888C149.755 31.7888 92.1201 57.2575 75.9738 64.8553C73.0569 66.2267 65.8972 69.5208 60.0634 72.1749C54.2297 74.8289 47.6667 77.8262 45.479 78.8345C43.2913 79.8442 37.0266 82.6016 31.5575 84.9629C15.0651 92.0823 7.56738 97.6568 3.27822 105.991C0.116047 112.137 -0.365232 114.383 0.208865 120.327C0.584083 124.204 1.45251 128.08 2.13931 128.94C2.82743 129.801 3.83773 131.995 4.38399 133.817C5.25508 136.72 16.6893 162.909 25.501 182.181C27.1676 185.825 31.3586 195.366 34.8138 203.382C38.2703 211.399 44.3215 225.162 48.2607 233.967C52.1998 242.772 55.4229 250.433 55.4229 250.992C55.4229 251.551 56.2808 253.887 57.3282 256.184C58.3769 258.48 63.4735 269.899 68.655 281.56C73.8365 293.22 79.6066 306.04 81.4761 310.048C83.3455 314.056 85.3847 318.528 86.0065 319.986C113.58 384.565 116.7 390.217 127.644 395.406C137.331 400 145.422 398.752 165.469 389.568C175.314 385.059 185.755 380.295 188.672 378.982C191.589 377.67 197.405 375.039 201.599 373.136C205.793 371.232 212.653 368.118 216.846 366.214C221.04 364.311 226.857 361.681 229.773 360.371C232.69 359.059 239.785 355.846 245.539 353.23C257.597 347.75 259.07 347.587 265.862 350.976C268.62 352.351 278.333 356.776 287.448 360.808C296.564 364.841 318.888 374.831 337.059 383.01C365.561 395.838 371.048 397.88 377.019 397.88C389.256 397.88 400.211 390.511 405.108 378.989C406.2 376.417 408.477 371.033 410.166 367.025C411.855 363.017 414.767 356.345 416.636 352.2C418.504 348.054 420.034 344.291 420.034 343.835C420.034 343.38 421.499 339.915 423.289 336.134C425.079 332.354 430.214 320.615 434.702 310.048C439.189 299.481 443.913 288.45 445.198 285.535C448.258 278.6 452.955 267.696 460.613 249.759C471.682 223.834 474.668 216.741 477.071 210.67C479.768 203.858 495.053 168.614 505.516 145.08C513.609 126.878 515.145 119.552 512.863 110.045C510.474 100.091 504.385 94.6688 486.964 86.9743C478.957 83.4377 470.914 79.7753 469.091 78.8358C465.341 76.9013 436.924 64.1915 403.461 49.4821C391.064 44.0322 377.938 38.157 374.292 36.4252C370.646 34.692 366.125 32.6965 364.246 31.9889C361.478 30.9474 360.386 29.0672 358.493 22.0763C355.705 11.7846 351.32 6.42882 342.638 2.70942C336.463 0.063309 334.055 -0.012227 256.512 0.00102348L176.739 0.0142869L170.021 3.14006ZM338.825 14.7064C341.688 15.7783 347.096 23.0515 347.107 25.846C347.109 26.5867 344.171 28.2351 340.577 29.5111C332.775 32.2804 325.112 40.4056 321.37 49.8757C319.974 53.4109 316.543 61.2326 313.747 67.2589C310.95 73.2852 308.662 78.5404 308.662 78.9352C308.662 79.3314 307.231 82.7474 305.481 86.5291C299.962 98.4597 287.845 126.414 286.948 129.284C284.697 136.491 270.868 161.774 265.626 168.268C257.459 178.385 249.781 193.618 250.966 197.35C251.531 199.13 252.617 199.982 253.758 199.545C254.787 199.15 255.628 199.312 255.628 199.904C255.628 201.596 250.457 216.179 249.278 217.813C248.695 218.621 246.345 223.755 244.058 229.22C241.77 234.686 235.622 248.997 230.394 261.021C210.576 306.611 210.574 306.615 213.374 317.998C213.788 319.677 211.101 320.044 196.09 320.357C178.917 320.716 178.142 320.613 173.165 317.321C170.332 315.448 167.442 312.409 166.742 310.57C164.886 305.69 165.033 28.1357 166.895 22.7984C168.776 17.4042 173.912 14.1512 182.042 13.2051C191.997 12.0457 335.383 13.4184 338.825 14.7064ZM369.652 48.491C380.225 53.2983 392.158 58.5852 396.169 60.2402C400.179 61.8938 407.339 65.0607 412.079 67.2775C416.819 69.493 429.647 75.2834 440.585 80.145C451.523 85.0066 463.754 90.4843 467.765 92.3182C471.776 94.152 478.339 97.1294 482.35 98.9354C496.215 105.18 497.954 106.255 499.429 109.491C501.934 114.983 501.096 122.772 496.992 132.149C493.65 139.787 481.028 169.21 464.445 208.02C462.11 213.486 456.482 226.578 451.94 237.115C447.396 247.65 442.611 258.98 441.306 262.291C440 265.601 431.032 286.495 421.376 308.723C411.72 330.951 401.447 354.801 398.547 361.725C395.648 368.648 392.112 376.213 390.689 378.534C386.071 386.07 375.693 387.29 364.563 381.607C361.893 380.244 355.829 377.379 351.089 375.24C346.35 373.1 339.787 370.136 336.505 368.652C333.224 367.167 321.589 361.983 310.651 357.131C299.712 352.28 288.973 347.507 286.785 346.527C284.598 345.546 277.14 342.244 270.212 339.188C231.136 321.959 229.384 321.046 227.168 316.762C224.141 310.913 224.67 306.537 229.824 294.81C232.385 288.98 236.627 279.141 239.251 272.947C241.873 266.752 247.134 254.529 250.941 245.783C254.747 237.038 259.447 226.231 261.386 221.767C263.323 217.303 264.909 213.242 264.909 212.741C264.909 212.24 266.349 208.738 268.108 204.956C269.867 201.176 275.01 189.436 279.537 178.869C284.063 168.302 288.842 157.271 290.156 154.355C291.471 151.44 294.416 144.583 296.701 139.117C298.986 133.652 302.612 125.465 304.759 120.926C306.905 116.386 308.662 112.355 308.662 111.967C308.662 111.58 309.809 108.735 311.212 105.645C312.613 102.557 315.669 95.5566 318.001 90.0908C320.335 84.625 323.867 76.5753 325.849 72.2027C327.833 67.83 331.191 60.1752 333.312 55.1931C336.414 47.904 338.205 45.511 342.471 42.9484C345.388 41.1966 348.371 39.7603 349.101 39.7563C349.83 39.7524 359.078 43.6824 369.652 48.491ZM152.874 100.802V155.68L149.559 155.786C142.753 156.002 127.715 157.973 125.003 159.004C122.926 159.793 121.744 162.076 120.471 167.76C119.313 172.93 117.57 176.553 115.148 178.816C109.408 184.181 109.625 185.53 117.657 194.315C126.539 204.03 130.795 214.583 131.942 229.727C132.361 235.278 133.076 239.821 133.527 239.821C133.979 239.821 137.604 238.632 141.583 237.179C153.104 232.97 152.815 232.03 153.197 275.031C153.464 304.994 153.888 312.184 155.589 315.47C158.515 321.125 162.702 325.658 168.104 329.016C172.385 331.677 174.958 331.966 199.942 332.591C226.526 333.256 227.277 333.353 234.214 336.986C238.116 339.031 241.099 340.891 240.843 341.123C240.588 341.355 228.746 346.757 214.526 353.129C200.306 359.5 183.004 367.379 176.076 370.637C142.318 386.512 140.832 386.968 133.275 383.771C127.124 381.17 125.566 378.862 117.266 360.063C102.72 327.117 95.4016 310.503 87.941 293.485C83.7884 284.011 79.5973 274.471 78.6295 272.284C76.8714 268.315 73.7609 261.18 60.7211 231.208C45.9643 197.292 32.2814 166.073 28.1991 157.005C16.1072 130.151 12.4651 120.902 12.4651 117.05C12.4651 112.662 16.0118 106.493 19.691 104.483C22.124 103.154 123.239 57.4258 130.212 54.5001C133.061 53.3049 138.729 50.7356 142.808 48.7905C146.885 46.8453 150.818 45.405 151.548 45.5892C152.406 45.8051 152.874 65.3231 152.874 100.802ZM227.785 85.7738C224.567 86.9849 212.622 98.1232 211.565 100.899C211.031 102.302 210.489 106.405 210.36 110.017C210.071 118.196 212.903 121.892 219.46 121.892C225.711 121.892 228.231 123.536 232.617 130.474C236.673 136.891 239.701 137.921 244.543 134.531C246.77 132.975 247.44 130.758 247.983 123.177C248.577 114.877 249.151 113.249 252.805 109.48C255.087 107.127 256.954 103.847 256.954 102.191C256.954 100.535 254.46 96.2231 251.411 92.6097C246.292 86.5436 245.457 86.064 240.473 86.3409C237.505 86.5065 233.884 86.2773 232.425 85.8334C230.967 85.3895 228.878 85.363 227.785 85.7738ZM281.897 93.4166C280.323 96.8697 280.275 96.8816 279.233 94.0633C277.459 89.2719 274.892 91.865 274.19 99.1594C273.61 105.166 272.986 106.364 269.254 108.623C263.58 112.057 262.142 117.521 266.074 120.703L268.966 123.043L264.617 123.461C260.784 123.83 260.219 124.39 259.853 128.186C259.62 130.605 260.055 132.492 260.848 132.492C263.243 132.492 262.4 134.796 259.75 135.488C255.435 136.616 252.34 157.041 256.02 160.094C259.6 163.064 271.111 151.305 281.268 134.306C285.348 127.48 286.13 124.942 286.177 118.406C286.222 111.795 286.803 109.96 290.051 106.164C294.017 101.531 294.096 98.041 290.238 98.041C288.68 98.041 288.022 96.9518 288.059 94.4329C288.131 89.4269 284.025 88.7498 281.897 93.4166ZM962.212 127.086C957.917 131.379 957.865 131.011 964.542 143.835C970.559 155.388 971.749 156.112 978.961 152.612C984.055 150.138 984.85 149.196 984.85 145.629C984.85 141.813 976.846 126.598 973.592 124.231C970.754 122.166 965.924 123.377 962.212 127.086ZM873.478 128.766C866.976 130.546 865.738 132.168 864.551 140.454L863.507 147.73L852.116 148.393C845.626 148.77 839.828 149.801 838.642 150.788C835.481 153.419 834.527 161.855 836.779 167.243C838.85 172.197 842.243 173.569 852.43 173.569C855.985 173.569 857.568 174.149 857.568 175.45C857.568 180.358 849.061 213.847 840.122 244.131C836.732 255.618 835.048 263.572 835.569 265.647C837.275 272.441 849.746 276.915 857.169 273.396C861.139 271.512 861.926 270.02 866.725 255.251C872.328 238.005 883.659 193.159 884.972 183.031C886.345 172.438 884.769 172.987 913.913 172.944L939.992 172.906L943.197 169.188C945.016 167.076 946.4 163.786 946.4 161.569C946.4 158.523 946.994 157.668 949.112 157.668C952.632 157.668 958.333 151.944 958.333 148.409C958.333 145.338 952.522 133.102 949.358 129.511C946.404 126.158 939.516 126.545 936.024 130.258C932.617 133.885 932.468 135.859 935.13 142.226C936.224 144.842 937.119 147.3 937.119 147.688C937.119 148.076 927.004 148.393 914.643 148.393H892.166L891.772 140.123C891.421 132.773 891.008 131.687 888.062 130.347C882.637 127.881 878.394 127.421 873.478 128.766ZM1350.68 131.093C1347.34 131.706 1341.13 133.799 1336.87 135.744L1329.14 139.28L1326.3 135.721C1323.65 132.399 1323.32 132.311 1321.25 134.375C1320.03 135.591 1318.4 139.094 1317.63 142.158C1316.86 145.223 1315.65 149.1 1314.94 150.774C1313.1 155.166 1313.37 161.076 1315.5 162.845C1317.58 164.568 1324.82 163.808 1336.2 160.676C1345.88 158.013 1345.96 157.936 1343.46 154.118C1342.27 152.3 1341.49 150.674 1341.73 150.505C1359.99 137.644 1390.74 140.339 1410.42 156.524C1419.2 163.75 1423 160.156 1415.55 151.674C1405.12 139.802 1386.04 131.255 1368.23 130.478C1361.92 130.204 1354.02 130.479 1350.68 131.093ZM196.832 133.591C195.626 134.924 194.638 136.989 194.638 138.183C194.638 139.376 193.641 142.441 192.424 144.994C190.592 148.831 190.47 150.502 191.715 154.646C192.542 157.4 193.58 161.002 194.022 162.646C195.048 166.476 205.445 174.443 210.954 175.621C213.284 176.119 216.251 177.644 217.548 179.009C221.513 183.182 227.851 185.812 231.958 184.99C243.818 182.62 249.684 169.734 244.179 158.141C239.236 147.732 222.976 146.625 217.455 156.323C211.397 166.962 211.259 153.586 217.271 138.455C218.005 136.609 218.351 137.916 218.413 142.761C218.49 148.723 218.87 149.718 221.067 149.718C226.959 149.718 225.886 140.552 219.328 134.865C215.824 131.826 213.948 131.267 207.108 131.221C200.916 131.179 198.514 131.733 196.832 133.591ZM729.317 133.349C726.78 135.479 722.199 145.961 709.135 179.531C707.716 183.175 703.459 194.504 699.674 204.707C695.89 214.91 691.329 227.133 689.539 231.87C681.779 252.415 679.635 259.773 680.455 263.042C682.088 269.541 695.293 274.62 702.068 271.354C704.792 270.042 707.077 266.338 711.718 255.721C724.934 225.485 732.037 214.645 738.63 214.645C743.525 214.645 745.696 218.294 748.086 230.545C752.707 254.215 755.906 261.347 764.716 267.618C773.881 274.139 793.358 273.55 803.699 266.438C809.61 262.376 818.304 250.77 820.409 244.134C826.789 224.03 827.346 221.154 825.65 217.062C823.676 212.298 817.669 209.345 809.955 209.345C803.422 209.345 801.848 211.363 797.093 225.843C791.105 244.073 783.973 250.18 779.939 240.531C778.883 238.005 777.413 231.894 776.672 226.949C773.105 203.178 769.414 194.593 760.85 190.169C755.248 187.272 747.348 186.376 741.544 187.978C738.715 188.759 736.216 189.213 735.992 188.988C735.38 188.377 739.92 175.917 746.133 161.154C752.676 145.606 752.98 138.988 747.341 134.798C742.233 131.002 732.999 130.259 729.317 133.349ZM1167.85 138.169C1161.36 141.451 1161.23 142.642 1161.21 201.129C1161.19 260.171 1161.47 262.748 1168.17 264.333C1172.94 265.46 1234.14 265.961 1239.84 264.92C1245.51 263.884 1246.71 262.646 1248.63 255.874C1250.01 251.031 1247.93 243.836 1244.52 241.639C1243.54 241.003 1231.69 240.185 1218.2 239.821L1193.67 239.158L1193.01 191.457C1192.65 165.221 1191.82 142.666 1191.17 141.334C1190.53 140.004 1188.55 138.363 1186.78 137.69C1182.19 135.948 1171.71 136.213 1167.85 138.169ZM1084.95 140.501C1073.28 141.113 1048.25 142.18 1029.32 142.869L994.912 144.122L991.869 147.656C989.704 150.172 988.828 152.854 988.828 156.962C988.828 161.846 989.489 163.289 993.135 166.355L997.445 169.979L1017.33 169.132C1028.27 168.667 1040.8 167.923 1045.18 167.479L1053.13 166.67L1045.08 174.426C1034.1 185.006 1029.3 192.358 1025.87 203.844C1023.72 211.028 1023.17 215.374 1023.77 220.408C1026.09 240.043 1036.31 254.967 1052.91 262.943C1067.05 269.74 1075.94 271.622 1093.91 271.622C1108.8 271.622 1109.77 271.456 1112.86 268.369C1117.45 263.78 1117.48 253.481 1112.91 248.176C1109.79 244.549 1109.36 244.454 1095.34 244.315C1074.65 244.109 1065.1 239.44 1058.57 226.348C1052.08 213.332 1055.34 199.101 1067.62 186.747C1075.54 178.791 1091.91 171.384 1109.68 167.716C1131.03 163.311 1132.02 162.626 1132.02 152.333C1132.02 148.846 1131.01 146.041 1128.85 143.531C1125.96 140.175 1124.81 139.825 1115.92 139.616C1110.56 139.49 1096.62 139.889 1084.95 140.501ZM553.223 143.695C549.097 147.819 548.775 156.701 552.572 161.643L555.118 164.956L602.275 165.335L649.432 165.715L652.734 162.414C657.051 158.1 657.322 149.058 653.289 143.934L650.541 140.442H603.509H556.477L553.223 143.695ZM356.393 157.589C355.299 158.338 352.744 158.961 350.716 158.973C346.859 158.994 337.774 162.303 336.551 164.133C336.162 164.716 333.157 167.121 329.876 169.475C322.919 174.467 320.136 178.707 322.192 181.184C323.831 183.157 329.876 183.42 329.876 181.519C329.876 180.79 330.769 180.194 331.861 180.194C332.953 180.194 336.225 178.045 339.134 175.42C342.913 172.006 345.846 170.546 349.414 170.297C352.158 170.106 356.411 168.898 358.866 167.611C363.028 165.429 363.631 165.417 367.86 167.434C370.353 168.621 374.783 169.593 377.705 169.593C382.051 169.593 383.939 170.494 388.11 174.562C390.913 177.296 394.767 180.603 396.676 181.912C398.584 183.221 400.146 185.412 400.146 186.779C400.146 188.147 401.682 191.088 403.556 193.317C406.506 196.819 407.025 198.837 407.388 208.236C407.839 219.864 409.694 223.129 415.384 222.314C417.835 221.963 418.035 220.987 417.918 210.007C417.799 198.74 417.485 197.48 412.237 187.182C408.604 180.051 405.004 175.013 401.826 172.607C399.156 170.585 395.042 167.015 392.684 164.674C388.383 160.4 386.759 159.751 376.944 158.384C363.681 156.535 358.237 156.324 356.393 157.589ZM1290.63 174.328C1278.36 178.251 1269.09 186.135 1263.04 197.788C1259.48 204.646 1258.14 224.588 1260.52 235.235C1264.74 254.081 1284.08 267.61 1306.83 267.636C1336.32 267.672 1354.76 249.666 1354.76 220.85C1354.76 199.594 1345.95 184.333 1329.39 176.904C1318.94 172.218 1300.95 171.023 1290.63 174.328ZM1402.79 173.567C1399.67 174.227 1394.09 176.417 1390.38 178.433C1375.89 186.315 1368.02 201.402 1368.02 221.313C1368.02 231.692 1368.52 234.334 1371.85 241.506C1376.26 251.004 1380.27 255.564 1388.36 260.303C1405.59 270.395 1428.99 269.956 1445.96 259.223C1451.79 255.54 1459.18 245.399 1461.95 237.305C1462.79 234.827 1463.49 226.777 1463.48 219.416C1463.48 207.454 1463.08 205.184 1459.71 198.051C1452.19 182.168 1438.5 173.611 1419.35 172.817C1413.36 172.569 1405.91 172.906 1402.79 173.567ZM1525.14 173.665C1522.22 174.393 1517.49 176.872 1514.62 179.175C1510.76 182.271 1509.24 182.884 1508.79 181.521C1505.96 173.054 1491.43 170.434 1484.44 177.129L1480.72 180.689V238.449C1480.72 302.721 1480.46 300.803 1489.66 303.342C1496.4 305.204 1503.82 303.748 1507.49 299.843C1510.4 296.735 1510.55 295.621 1510.54 277.468C1510.53 266.96 1510.83 258.545 1511.2 258.768C1511.57 258.99 1515.89 261.078 1520.8 263.409C1538.94 272.029 1557.76 266.817 1567.81 250.385C1575.51 237.8 1577.34 213.655 1571.76 198.279C1567.92 187.712 1564.19 182.99 1555.46 177.622C1550.01 174.267 1546.87 173.333 1539.55 172.893C1534.54 172.591 1528.05 172.938 1525.14 173.665ZM920.45 182.868C910.435 183.924 903.483 186.705 902.144 190.191C900.339 194.893 901.334 202.233 904.191 205.299C906.907 208.212 907.641 208.326 917.781 207.406C923.678 206.871 937.351 206.045 948.168 205.571C970.567 204.587 971.592 204.072 971.592 193.793C971.592 189.435 970.796 187.228 968.337 184.772C965.188 181.623 964.518 181.524 947.454 181.699C937.76 181.797 925.608 182.323 920.45 182.868ZM309.408 185.359C307.828 187.913 305.872 207.287 306.672 212.476C308.211 222.475 311.384 231.945 315.358 238.399C318.499 243.499 319.216 246.04 318.945 251.098C318.615 257.25 318.749 257.496 323.928 260.215C326.854 261.752 331.926 264.149 335.198 265.541C338.469 266.934 345.546 270.065 350.924 272.498C356.301 274.93 361.494 276.922 362.463 276.922C363.431 276.922 365.198 274.871 366.387 272.365C368.353 268.223 369.396 267.616 377.814 265.703C388.998 263.16 396.543 259.751 403.3 254.183C410.599 248.17 418.708 237.444 418.708 233.801C418.708 230.398 419.704 230.984 396.169 220.552C388.512 217.159 379.562 213.19 376.281 211.734C372.999 210.278 367.928 207.972 365.011 206.61C352.849 200.931 328.668 190.25 321.337 187.319C312.791 183.9 310.539 183.53 309.408 185.359ZM100.203 192.45C97.035 195.507 95.387 197.696 88.5151 207.973C82.2384 217.361 80.6501 226.57 85.3091 226.57C86.2757 226.57 87.2568 228.211 87.4875 230.214C87.8601 233.451 88.9446 234.199 97.1875 236.907C102.292 238.583 110.463 240.307 115.346 240.736C124.155 241.512 124.231 241.49 125.126 237.922C127.011 230.417 124.959 215.188 121.012 207.392C117.481 200.418 107.442 189.469 104.578 189.469C103.87 189.469 101.901 190.81 100.203 192.45ZM552.27 202.869C538.05 217.804 533.952 231.216 539.289 245.349C543.908 257.582 554.581 265.552 572.149 269.887C585.341 273.144 629.658 273.032 646.093 269.701C652.656 268.37 659.734 266.083 661.82 264.619C665.375 262.123 665.575 261.496 665.007 254.64C664.492 248.44 663.74 246.736 660.069 243.458C657.021 240.736 654.897 239.823 652.904 240.379C632.205 246.14 591.765 247.841 580.332 243.432C566.565 238.121 565.21 230.491 575.759 217.686C583.331 208.494 583.609 204.592 577.102 198.882C573.285 195.532 571.262 194.769 566.2 194.769C560.314 194.769 559.573 195.2 552.27 202.869ZM1314.96 196.471C1316.77 197.385 1319.62 200.505 1321.3 203.407C1324.01 208.078 1324.31 210.137 1323.98 221.377C1323.64 232.892 1323.27 234.517 1319.95 238.853C1316.99 242.733 1315.13 243.812 1310.06 244.571C1296.74 246.567 1289.1 237.558 1289.18 219.945C1289.25 203.904 1295.64 194.924 1307.03 194.842C1309.59 194.824 1313.15 195.556 1314.96 196.471ZM1425.16 197.042C1431.03 200.509 1433.36 208.142 1432.8 222.149C1432.23 236.279 1429.41 241.452 1420.87 244.011C1412.48 246.521 1405.38 243.541 1401.41 235.846C1398.72 230.64 1398.4 228.453 1398.89 218.62C1399.19 212.425 1400.16 205.867 1401.04 204.045C1405.04 195.754 1417.07 192.264 1425.16 197.042ZM1536.16 197.454C1542.08 201.062 1544.49 207.461 1544.57 219.785C1544.68 236.923 1539.55 244.303 1527.65 244.123C1515.68 243.943 1511.21 237.291 1511.22 219.656C1511.23 207.131 1513.49 201.874 1520.82 197.413C1526.3 194.068 1530.62 194.08 1536.16 197.454ZM106.327 210.116C107.688 213.66 107.232 215.648 104.846 216.562C101.65 217.788 98.8422 213.769 100.6 210.487C102.215 207.47 105.235 207.275 106.327 210.116ZM902.647 218.234C899.274 219.475 895.78 223.003 891.84 229.149C885.156 239.573 887.152 251.571 897.052 260.491C906.931 269.39 920.656 272.894 945.737 272.916C971.832 272.94 975.569 271.219 975.569 259.174C975.569 254.341 974.865 252.525 971.936 249.812C967.922 246.092 965.892 245.886 952.428 247.831C941.607 249.393 925.571 247.627 920.513 244.315C916.7 241.818 916.238 237.266 919.322 232.564C922.329 227.976 921.208 223.793 916.041 220.321C911.725 217.422 906.903 216.671 902.647 218.234ZM1390.02 277.683C1379.83 279.395 1376.08 281.529 1378.69 284.133C1381.8 287.249 1379.85 290.021 1372.63 292.722C1352.36 300.301 1328.47 296.358 1312.16 282.738C1306.6 278.089 1303.12 277.395 1302.01 280.71C1301.06 283.559 1316.31 297.043 1325.69 301.65C1334.98 306.215 1350.1 310.048 1358.81 310.048C1365.79 310.048 1378.72 306.869 1387.03 303.112L1393.44 300.212L1395.81 303.35C1399.34 308.022 1401.7 306.085 1404.92 295.894C1408.38 284.942 1408.68 277.542 1405.7 276.401C1403.22 275.449 1403.4 275.434 1390.02 277.683Z" fill="#BE614C"/>
</svg>
